<svg xmlns="http://www.w3.org/2000/svg" viewBox="0 0 881 900" style="background:#101418;font-family:sans-serif">
<polyline points="408.0,444.9 414.8,443.5 425.0,446.7 438.1,450.8 451.3,452.8 471.8,453.4 495.8,453.7 521.0,454.3 547.1,452.0 592.2,446.4 610.7,448.1" fill="none" stroke="#4b5563" stroke-width="1.5" stroke-linecap="round"/>
<polyline points="64.4,522.0 66.5,536.3 69.8,558.5 73.2,600.2 68.0,628.8 62.4,652.4 62.4,664.3 68.6,678.9 68.6,696.9 67.2,702.1 65.2,709.3 64.0,711.3 59.1,719.4 51.2,729.0 45.0,738.5 41.6,753.7 38.3,764.4 28.1,773.4 7.9,792.0 1.7,795.9 -8.5,801.6 -12.4,806.1 -14.1,811.1 -11.8,813.9 -9.1,813.6 -2.2,812.8 14.6,808.3 29.2,801.6 42.2,793.1 48.9,788.6 53.5,788.1 58.0,790.9 56.8,800.5 46.7,806.6 36.0,816.2 23.1,830.2 7.9,852.8 -0.5,866.8 -27.0,887.7 -51.7,915.2 -65.3,934.9 -75.4,956.8 -85.5,981.1 -95.7,1004.7 -96.8,1007.4 -103.5,1023.2 -114.8,1036.2 -118.2,1040.1 -121.5,1050.3 -121.0,1057.0 -113.7,1063.2 -100.7,1067.7 -83.8,1066.0 -65.8,1062.6 -47.8,1052.0" fill="none" stroke="#4b5563" stroke-width="1.5" stroke-linecap="round"/>
<polyline points="400.1,423.8 392.2,420.9 380.8,423.8 372.6,427.6 363.8,428.8 344.4,431.5 326.4,433.8 316.7,436.7 305.8,442.0 296.7,444.6 268.0,445.2 259.9,444.0 235.8,440.5 215.9,435.2 198.1,429.4 191.4,423.2 190.5,411.8 193.4,396.6 196.0,388.1 202.7,377.5 205.1,369.9 206.8,357.1 212.4,348.3 221.2,344.2 233.8,343.9 252.5,348.0 268.0,353.3 280.7,356.2 292.7,358.3 306.7,359.1 330.4,359.1 338.4,360.3 363.2,370.3 375.2,371.1 388.4,371.4 403.0,378.4 415.0,392.8 418.9,400.1" fill="none" stroke="#4b5563" stroke-width="1.5" stroke-linecap="round"/>
<polyline points="418.9,400.1 424.7,404.2 430.5,410.9 442.0,417.1 452.5,418.0 478.3,419.2 503.2,418.8 518.1,417.7 538.0,415.1 556.7,411.6 572.0,406.0 592.5,396.9 603.3,393.4 620.4,393.9" fill="none" stroke="#4b5563" stroke-width="1.5" stroke-linecap="round"/>
<polyline points="1425.5,914.9 1222.2,820.9 1158.3,787.4 1117.1,763.6 1068.5,735.2 1029.6,707.3 1005.7,686.3 934.0,610.5 871.5,549.3 852.8,534.1 833.1,520.2 818.7,512.7 797.0,503.8 765.9,496.2 741.5,494.5 717.8,493.7 484.3,499.8 481.0,499.9" fill="none" stroke="#4b5563" stroke-width="1.5" stroke-linecap="round"/>
<polyline points="481.0,499.9 462.0,500.4 307.1,507.3 157.5,514.0 64.4,522.0" fill="none" stroke="#4b5563" stroke-width="1.5" stroke-linecap="round"/>
<polyline points="64.4,522.0 -81.0,534.5 -129.0,535.7 -152.9,532.9 -168.3,528.6 -190.5,519.8 -292.3,472.3 -336.2,455.8" fill="none" stroke="#4b5563" stroke-width="1.5" stroke-linecap="round"/>
<polyline points="481.0,499.9 479.8,484.5 475.0,473.6 466.6,470.1 447.8,470.1 430.5,472.1 424.1,471.6 421.7,467.5 419.2,458.4 411.5,451.1 408.0,444.9" fill="none" stroke="#e5484d" stroke-width="4" stroke-linecap="round"/>
<polyline points="408.0,444.9 403.3,436.7 400.4,428.0 400.1,423.8" fill="none" stroke="#e5484d" stroke-width="4" stroke-linecap="round"/>
<polyline points="400.1,423.8 403.9,414.8 408.0,407.7 418.9,400.1" fill="none" stroke="#e5484d" stroke-width="4" stroke-linecap="round"/>
<circle cx="418.9" cy="400.1" r="6" fill="#30a46c" stroke="#101418" stroke-width="1.5"/>
<circle cx="408.0" cy="444.9" r="6" fill="#30a46c" stroke="#101418" stroke-width="1.5"/>
<circle cx="481.0" cy="499.9" r="6" fill="#30a46c" stroke="#101418" stroke-width="1.5"/>
<circle cx="481.0" cy="499.9" r="6" fill="#30a46c" stroke="#101418" stroke-width="1.5"/>
<circle cx="418.9" cy="400.1" r="6" fill="#f5a524" stroke="#101418" stroke-width="1.5"/>
<circle cx="408.0" cy="444.9" r="6" fill="#f5a524" stroke="#101418" stroke-width="1.5"/>
<circle cx="481.0" cy="499.9" r="6" fill="#f5a524" stroke="#101418" stroke-width="1.5"/>
<circle cx="481.0" cy="499.9" r="6" fill="#f5a524" stroke="#101418" stroke-width="1.5"/>
<line x1="20" y1="880" x2="100.0" y2="880" stroke="#e5e7eb" stroke-width="2"/><text x="20" y="872" fill="#e5e7eb" font-size="13">100 m</text><text x="20" y="24" fill="#e5e7eb" font-size="15">link 278894 — red: closure, green dot: entry, amber dot: exit</text>
</svg>